<svg width="64" height="53" viewBox="0 0 64 53" fill="none" xmlns="http://www.w3.org/2000/svg">
<path d="M15.2494 52.128C5.77741 52.128 0.785411 44.832 0.785411 32.16C0.785411 18.08 7.82541 7.328 22.4174 0.159996L27.2814 10.144C18.1934 14.368 13.8414 20.128 13.8414 28.832L14.2254 41.888L6.92941 31.776C9.23341 29.984 12.1774 28.448 15.2494 28.448C21.6494 28.448 26.8974 32.8 26.8974 39.712C26.8974 47.264 22.0334 52.128 15.2494 52.128ZM51.0894 52.128C41.6174 52.128 36.6254 44.832 36.6254 32.16C36.6254 18.08 43.6654 7.328 58.2574 0.159996L63.1214 10.144C54.0334 14.368 49.6814 20.128 49.6814 28.832L50.0654 41.888L42.7694 31.776C45.0734 29.984 48.0174 28.448 51.0894 28.448C57.4894 28.448 62.7374 32.8 62.7374 39.712C62.7374 47.264 57.8734 52.128 51.0894 52.128Z" fill="#D9D9D9"/>
</svg>
