<svg width="63" height="52" viewBox="0 0 63 52" fill="none" xmlns="http://www.w3.org/2000/svg">
<path d="M5.33741 51.952L0.345411 42.096C9.43341 37.744 13.9134 32.112 13.9134 23.28L13.4014 10.352L20.6974 20.464C18.5214 22.256 15.4494 23.664 12.5054 23.664C5.97741 23.664 0.729411 19.312 0.729411 12.4C0.729411 4.84799 5.72141 0.111992 12.5054 0.111992C21.9774 0.111992 26.8414 7.408 26.8414 19.824C26.8414 33.904 19.8014 44.912 5.33741 51.952ZM41.1774 51.952L36.1854 42.096C45.2734 37.744 49.7534 32.112 49.7534 23.28L49.2414 10.352L56.5374 20.464C54.3614 22.256 51.2894 23.664 48.3454 23.664C41.8174 23.664 36.5694 19.312 36.5694 12.4C36.5694 4.84799 41.5614 0.111992 48.3454 0.111992C57.8174 0.111992 62.6814 7.408 62.6814 19.824C62.6814 33.904 55.6414 44.912 41.1774 51.952Z" fill="#D9D9D9"/>
</svg>
