<svg width="1116" height="855" viewBox="0 0 1116 855" fill="none" xmlns="http://www.w3.org/2000/svg">
<path d="M0 144.042H1116V226.558C1116 237.604 1107.05 246.558 1096 246.558H20C8.95431 246.558 0 237.604 0 226.558V144.042Z" fill="black"/>
<path d="M0 30C0 13.4315 13.4315 0 30 0H1086C1102.57 0 1116 13.4315 1116 30V101.219H0V30Z" fill="black"/>
<rect x="1016.63" y="71.3719" width="99.3699" height="101.219" fill="black"/>
<rect y="71.3719" width="99.3699" height="101.219" fill="black"/>
<path d="M326.965 304.261H341.525V309.701C341.525 335.621 316.725 355.621 283.925 360.581L277.525 347.461C306.165 343.621 326.965 326.981 326.965 309.701V304.261ZM331.605 304.261H346.005V309.701C346.005 326.981 366.965 343.621 395.445 347.461L389.205 360.581C356.245 355.621 331.605 335.621 331.605 309.701V304.261ZM327.765 380.581H344.405V435.301H327.765V380.581ZM270.485 371.141H402.645V384.741H270.485V371.141ZM282.485 297.381H390.165V310.821H282.485V297.381ZM417.513 362.661H549.993V376.101H417.513V362.661ZM476.713 371.141H493.353V403.461H476.713V371.141ZM434.153 295.621H532.873V348.261H434.153V295.621ZM516.393 308.901H450.633V334.981H516.393V308.901ZM433.673 418.821H535.273V432.421H433.673V418.821ZM433.673 390.181H450.312V423.461H433.673V390.181ZM633.82 329.221H673.82V342.821H633.82V329.221ZM669.18 289.221H685.98V397.221H669.18V289.221ZM590.78 418.821H689.34V432.421H590.78V418.821ZM590.78 386.661H607.58V426.181H590.78V386.661ZM571.42 298.821H588.06V322.981H622.46V298.821H638.94V373.221H571.42V298.821ZM588.06 335.941V359.781H622.46V335.941H588.06ZM718.128 309.061H837.648V322.501H718.128V309.061ZM712.048 405.701H844.528V419.301H712.048V405.701ZM769.648 384.101H786.288V410.981H769.648V384.101ZM777.808 330.821C807.728 330.821 826.448 341.221 826.448 358.981C826.448 376.741 807.728 387.141 777.808 387.141C747.888 387.141 729.328 376.741 729.328 358.981C729.328 341.221 747.888 330.821 777.808 330.821ZM777.808 343.941C757.808 343.941 746.288 349.221 746.288 358.981C746.288 368.741 757.808 373.861 777.808 373.861C797.808 373.861 809.328 368.741 809.328 358.981C809.328 349.221 797.808 343.941 777.808 343.941ZM769.648 291.141H786.288V317.381H769.648V291.141Z" fill="black"/>
<path d="M355.304 654.021V634.981H380.904V560.101H359.304V545.541C371.304 543.301 379.304 540.261 386.984 535.621H404.424V634.981H426.664V654.021H355.304ZM443.439 654.021V640.581C475.759 611.621 494.639 589.381 494.639 571.141C494.639 559.301 488.399 551.941 477.039 551.941C468.239 551.941 461.359 557.541 455.279 564.261L442.319 551.461C453.199 539.781 463.919 533.541 480.079 533.541C502.319 533.541 517.359 547.781 517.359 569.861C517.359 591.461 499.439 614.501 477.839 635.621C483.759 634.981 491.599 634.181 497.199 634.181H522.799V654.021H443.439ZM578.294 656.261C554.134 656.261 538.134 635.301 538.134 594.341C538.134 553.541 554.134 533.541 578.294 533.541C602.294 533.541 618.294 553.541 618.294 594.341C618.294 635.301 602.294 656.261 578.294 656.261ZM578.294 637.861C588.534 637.861 596.054 627.621 596.054 594.341C596.054 561.221 588.534 551.621 578.294 551.621C568.054 551.621 560.374 561.221 560.374 594.341C560.374 627.621 568.054 637.861 578.294 637.861ZM701.949 559.461H740.029V576.421H701.949V559.461ZM734.589 520.261H755.869V629.541H734.589V520.261ZM657.789 648.741H759.069V665.701H657.789V648.741ZM657.789 618.821H679.229V658.501H657.789V618.821ZM638.109 529.861H659.229V552.421H687.389V529.861H708.189V606.341H638.109V529.861ZM659.229 568.581V589.541H687.389V568.581H659.229Z" fill="#DB0007"/>
<path d="M145 144.021H970.982V247.021H145V144.021Z" fill="white"/>
<path d="M971.472 51.0209L971.472 659.228C971.472 711.041 971.472 736.926 964.217 757.859C957.62 777.21 946.397 794.862 931.418 809.444C916.44 824.026 898.109 835.147 877.851 841.942C856.363 849.021 829.778 849.021 776.562 849.021L339.91 849.021C286.694 849.021 260.109 849.021 238.621 841.942C218.355 835.145 200.02 824.019 185.041 809.428C170.062 794.838 158.842 777.176 152.255 757.816C145 736.969 145 711.041 145 659.228L145 51.0209" stroke="black" stroke-width="10"/>
</svg>
